# Blender v2.80 (sub 75) OBJ File: ''
# www.blender.org
mtllib terrain_02.mtl
o coll_2_Scene.001
v 5.389002 -0.000000 -9.973814
v -5.389002 0.000000 9.973814
v -5.388999 0.000000 -9.973816
v 5.388999 -0.000000 9.973816
v -5.389002 -2.165105 9.973814
v 5.389002 -2.165106 -9.973814
v -5.388999 -2.165105 -9.973816
v 5.388999 -2.165106 9.973816
vt 0.004063 0.994802
vt 0.003993 0.798138
vt 0.368032 0.798138
vt 0.368031 0.994803
vt 0.368032 0.798138
vt 0.003993 0.798138
vt 0.004063 0.994802
vt 0.368031 0.994803
vn 0.0000 1.0000 0.0000
vn -0.0000 -1.0000 0.0000
vn -0.0000 0.0000 1.0000
vn 1.0000 0.0000 0.0000
vn 0.0000 0.0000 -1.0000
vn -1.0000 0.0000 -0.0000
usemtl terrain_02
s 1
f 1/1/1 3/2/1 2/3/1
f 2/3/1 4/4/1 1/1/1
f 5/5/2 7/6/2 6/7/2
f 6/7/2 8/8/2 5/5/2
f 5/5/3 8/8/3 4/4/3
f 4/4/3 2/3/3 5/5/3
f 8/8/4 6/7/4 1/1/4
f 1/1/4 4/4/4 8/8/4
f 6/7/5 7/6/5 3/2/5
f 3/2/5 1/1/5 6/7/5
f 7/6/6 5/5/6 2/3/6
f 2/3/6 3/2/6 7/6/6
o terrain_02_00_Scene
v -5.389002 0.000000 9.973814
v 5.389002 -0.000000 -9.973814
v 5.388999 -0.000000 9.973816
v -5.388999 0.000000 -9.973816
v -5.648649 -0.261650 -9.973816
v -5.648652 -0.261650 9.973814
v -5.648652 -0.729255 9.973814
v -5.648649 -0.729255 -9.973816
v 22.472160 -0.297144 9.973821
v 5.200012 -0.297144 -9.973814
v 22.472160 -0.297144 -9.973810
v 5.200009 -0.297144 9.973816
v 22.361740 -0.297144 9.973821
v 22.361744 9.332230 -9.973811
v 22.361740 9.332228 9.973821
v 22.361744 -0.297144 -9.973811
v 21.473610 10.804415 -9.973811
v 21.473606 9.332227 9.973821
v 21.473610 9.332227 -9.973811
v 21.473606 10.804415 9.973821
v 21.723547 11.073401 -9.973811
v 21.723543 11.073401 9.973821
v 24.277607 11.073401 -9.973811
v 24.277603 11.073401 9.973821
v -38.874962 -0.729254 -9.973822
v -38.874962 -0.729254 9.973808
vt 0.368032 0.798138
vt 0.368031 0.994803
vt 0.004063 0.994802
vt 0.003993 0.798138
vt 0.003993 0.791409
vt 0.368032 0.791409
vt 0.368032 0.783531
vt 0.003993 0.783531
vt 0.563964 0.604251
vt 0.563964 0.991431
vt 0.380329 0.991431
vt 0.380330 0.604251
vt 0.749271 0.664607
vt 0.902875 0.664607
vt 0.902875 0.991363
vt 0.749271 0.991363
vt 0.948263 0.991363
vt 0.920475 0.991363
vt 0.920475 0.664607
vt 0.948263 0.664607
vt 0.955035 0.991363
vt 0.955035 0.664607
vt 0.992689 0.991363
vt 0.992689 0.664607
vt 0.003993 0.197240
vt 0.368032 0.197240
vn -0.3845 0.9231 -0.0000
vn 0.0000 1.0000 0.0000
vn -0.9246 0.3809 -0.0000
vn -1.0000 0.0000 -0.0000
vn -0.9307 0.3657 -0.0000
vn -0.3996 0.9167 -0.0000
vn 0.0000 -1.0000 0.0000
usemtl terrain_02
s 1
f 9/9/7 11/10/8 10/11/8
f 10/11/8 12/12/7 9/9/7
f 9/9/7 12/12/7 13/13/9
f 13/13/9 14/14/9 9/9/7
f 15/15/10 14/14/9 13/13/9
f 13/13/9 16/16/10 15/15/10
f 17/17/8 19/18/8 18/19/8
f 18/19/8 20/20/8 17/17/8
f 21/21/10 23/22/10 22/23/10
f 22/23/10 24/24/10 21/21/10
f 25/25/11 27/26/10 26/27/10
f 26/27/10 28/28/11 25/25/11
f 29/29/12 25/25/11 28/28/11
f 28/28/11 30/30/12 29/29/12
f 31/31/8 29/29/12 30/30/12
f 30/30/12 32/32/8 31/31/8
f 23/22/13 26/27/13 27/26/13
f 27/26/13 22/23/13 23/22/13
f 15/15/8 16/16/8 33/33/8
f 33/33/8 34/34/8 15/15/8
