# Blender v2.80 (sub 75) OBJ File: ''
# www.blender.org
mtllib INI.mtl
o terrain_01_00_Scene
v 21.649788 3.637810 0.997384
v 24.124325 9.341250 -1.994760
v 24.113880 8.817837 0.997385
v 21.651237 3.668927 -2.992142
v 24.111912 8.680398 -4.986905
v 21.647346 3.577413 -6.981668
v 24.100439 8.127450 -7.979050
v 24.095667 7.908705 -9.973813
v 21.644581 3.517641 -9.973813
v 21.646181 3.557693 4.986911
v 24.096102 8.037210 3.989529
v 24.106598 8.281126 6.981673
v 21.647751 3.552658 7.979054
v 21.644577 3.517641 9.973817
v 24.095663 7.908705 9.973817
v 17.250885 0.931931 -2.992143
v 17.253462 0.931931 0.997384
v 4.831221 0.587342 0.997382
v 4.831222 0.587342 -2.992145
v 17.262033 0.931931 -6.981669
v 4.831222 0.587342 -6.981671
v 4.831220 0.587342 4.986908
v 17.248495 0.931931 4.986910
v 4.831220 0.587342 7.979052
v 17.238697 0.931931 7.979053
v 17.223385 0.931930 -9.973814
v 17.223377 0.931930 9.973816
v 4.831223 0.587342 -9.973816
v 4.831220 0.587342 9.973814
v 3.808185 0.837165 -9.973816
v -4.984506 0.815622 -6.981674
v -4.899593 0.815622 -9.973818
v 4.061085 0.837165 -6.981672
v -5.140862 0.815622 -2.992148
v 3.962315 0.837165 -2.992146
v -4.809948 0.815622 0.997379
v 4.027281 0.837165 0.997381
v -4.736951 0.815622 4.986906
v 4.003627 0.837165 4.986907
v -4.962582 0.815622 7.979049
v 3.904217 0.837165 7.979051
v -4.899596 0.815622 9.973812
v 3.808182 0.837165 9.973814
v 5.643500 0.730098 -6.981671
v 5.334298 0.730098 -9.973816
v 5.554328 0.730098 -2.992146
v 5.574970 0.730098 0.997381
v 5.535207 0.730098 4.986907
v 5.456834 0.730098 7.979052
v 5.334295 0.730098 9.973814
v -6.350911 0.643925 4.986906
v -6.440016 0.643925 0.997379
v -7.491387 -0.721013 0.997378
v -7.866624 -0.721013 -2.992149
v -6.815254 0.643925 -2.992149
v -7.700671 -0.721013 -6.981675
v -6.649301 0.643925 -6.981674
v -7.559456 -0.721013 -9.973818
v -6.508085 0.643925 -9.973818
v -7.402282 -0.721013 4.986905
v -6.597578 0.643925 7.979049
v -7.648950 -0.721013 7.979048
v -6.508088 0.643925 9.973812
v -7.559459 -0.721013 9.973812
v -41.989773 -0.844254 4.654438
v -41.989773 -0.844254 -4.986917
v -41.989773 -0.844254 -9.973824
v -41.989773 -0.844254 9.973806
v 27.626963 10.052691 -1.994760
v 27.626963 9.490254 0.997385
v 27.626963 9.343010 -4.986904
v 27.626965 8.748512 -7.979050
v 27.626965 8.513173 -9.973812
v 27.626963 8.650401 3.989530
v 27.626961 8.914982 6.981674
v 27.626961 8.513173 9.973818
v 29.424385 7.663904 0.000003
v 29.424385 7.722011 -1.994759
v 29.424385 7.103900 -3.989522
v 29.424387 6.920756 -5.984286
v 29.424387 6.417829 -7.979048
v 29.424387 6.182491 -9.973812
v 29.424383 6.182491 9.973818
v 29.424383 6.472558 7.979056
v 29.424383 6.696044 5.984294
v 29.424385 6.319720 3.989530
v 29.424385 6.655241 1.994767
v 25.420183 2.590602 -9.973813
vt 0.783579 0.407807
vt 0.783579 0.544066
vt 0.707942 0.544066
vt 0.682890 0.407807
vt 0.634153 0.544066
vt 0.586710 0.407807
vt 0.562952 0.544066
vt 0.518263 0.544066
vt 0.518263 0.407808
vt 0.878650 0.407807
vt 0.855816 0.544066
vt 0.924798 0.544066
vt 0.948111 0.407807
vt 0.993440 0.407807
vt 0.993440 0.544066
vt 0.682890 0.278505
vt 0.783579 0.278505
vt 0.783579 0.004943
vt 0.682890 0.004943
vt 0.586710 0.278505
vt 0.586710 0.004943
vt 0.878650 0.004943
vt 0.878651 0.278505
vt 0.948111 0.004943
vt 0.948111 0.278505
vt 0.518263 0.278505
vt 0.993440 0.278505
vt 0.518263 0.004943
vt 0.993440 0.004943
vt 0.010496 0.948783
vt 0.010496 0.773541
vt 0.070588 0.771934
vt 0.070560 0.953892
vt 0.150257 0.769035
vt 0.150279 0.952024
vt 0.230110 0.775233
vt 0.230181 0.953033
vt 0.310231 0.776626
vt 0.310213 0.952497
vt 0.370276 0.772445
vt 0.370246 0.950647
vt 0.410161 0.773541
vt 0.410161 0.948783
vt 0.070479 0.986580
vt 0.010496 0.980353
vt 0.150351 0.984891
vt 0.230165 0.985028
vt 0.310254 0.984173
vt 0.370246 0.982710
vt 0.410161 0.980353
vt 0.310236 0.742848
vt 0.230110 0.741131
vt 0.230529 0.706052
vt 0.150424 0.699055
vt 0.150263 0.734158
vt 0.070234 0.702016
vt 0.070566 0.737148
vt 0.010496 0.704836
vt 0.010496 0.739848
vt 0.310133 0.707759
vt 0.370282 0.738385
vt 0.370053 0.703291
vt 0.410161 0.739848
vt 0.410161 0.704836
vt 0.303565 0.014753
vt 0.110337 0.014955
vt 0.010496 0.014879
vt 0.410161 0.014879
vt 0.783579 0.638287
vt 0.707942 0.638287
vt 0.634153 0.638287
vt 0.562952 0.638287
vt 0.518263 0.638287
vt 0.855816 0.638287
vt 0.924798 0.638287
vt 0.993440 0.638287
vt 0.757712 0.709955
vt 0.707942 0.709955
vt 0.657837 0.709955
vt 0.610468 0.709955
vt 0.562952 0.709955
vt 0.518263 0.709955
vt 0.993440 0.709955
vt 0.948111 0.709955
vt 0.901485 0.709955
vt 0.855816 0.709955
vt 0.809446 0.709955
vt 0.518263 0.520448
vn -0.7490 0.6624 0.0133
vn -0.5956 0.7873 0.1594
vn -0.5938 0.8043 -0.0221
vn -0.7506 0.6607 -0.0099
vn -0.6061 0.7814 -0.1487
vn -0.7272 0.6861 -0.0207
vn -0.5925 0.7973 -0.1154
vn -0.5976 0.7980 -0.0781
vn -0.7124 0.7017 -0.0134
vn -0.7288 0.6847 0.0097
vn -0.6012 0.7952 0.0791
vn -0.5724 0.8198 0.0143
vn -0.7276 0.6860 0.0061
vn -0.7209 0.6928 0.0172
vn -0.5936 0.7985 0.0996
vn -0.2870 0.9579 0.0004
vn -0.2840 0.9588 0.0018
vn -0.0277 0.9996 0.0000
vn -0.2845 0.9587 -0.0005
vn -0.2791 0.9603 -0.0003
vn -0.0278 0.9996 -0.0000
vn -0.2773 0.9608 -0.0004
vn -0.2738 0.9618 -0.0021
vn -0.0277 0.9996 0.0001
vn 0.0315 0.9995 -0.0031
vn -0.0529 0.9986 -0.0022
vn -0.0524 0.9986 -0.0018
vn 0.0338 0.9994 -0.0011
vn -0.0544 0.9985 0.0015
vn 0.0320 0.9995 0.0003
vn -0.0527 0.9986 0.0027
vn 0.0336 0.9994 -0.0001
vn -0.0526 0.9986 -0.0016
vn 0.0339 0.9994 0.0006
vn -0.0554 0.9985 -0.0010
vn 0.0335 0.9994 0.0015
vn -0.0533 0.9986 0.0017
vn 0.0327 0.9995 0.0016
vn 0.0679 0.9977 -0.0022
vn 0.0700 0.9975 -0.0072
vn 0.0671 0.9977 0.0006
vn 0.0688 0.9976 -0.0001
vn 0.0697 0.9976 0.0011
vn 0.0689 0.9976 0.0032
vn 0.0695 0.9976 0.0037
vn -0.4781 0.8782 -0.0142
vn -0.4805 0.8766 0.0274
vn -0.4506 0.8923 0.0265
vn -0.4275 0.9039 0.0109
vn -0.4994 0.8663 0.0133
vn -0.4422 0.8967 -0.0196
vn -0.4875 0.8729 -0.0213
vn -0.4535 0.8910 -0.0214
vn -0.4793 0.8774 -0.0226
vn -0.4546 0.8906 -0.0139
vn -0.4998 0.8661 -0.0094
vn -0.4285 0.9035 -0.0078
vn -0.4794 0.8773 0.0211
vn -0.4530 0.8913 0.0203
vn -0.0036 1.0000 -0.0000
vn 0.3353 0.9150 0.2244
vn 0.3204 0.9467 -0.0323
vn 0.3530 0.9155 -0.1931
vn 0.3583 0.9216 -0.1495
vn 0.3736 0.9214 -0.1071
vn 0.3762 0.9228 0.0833
vn 0.3407 0.9398 0.0262
vn 0.3764 0.9182 0.1233
vn 0.7677 0.6173 0.1722
vn 0.7963 0.6000 -0.0768
vn 0.8000 0.5872 -0.1234
vn 0.7829 0.6125 -0.1090
vn 0.7872 0.6071 -0.1083
vn 0.7898 0.6091 -0.0719
vn 0.7869 0.6111 0.0854
vn 0.7865 0.6121 0.0815
vn 0.7837 0.6205 -0.0262
vn 0.8019 0.5974 0.0087
vn 0.8082 0.5676 0.1570
vn -0.0000 0.0000 -1.0000
usemtl terrain_world_01
s 1
f 1/1/1 3/2/2 2/3/3
f 2/3/3 4/4/4 1/1/1
f 4/4/4 2/3/3 5/5/5
f 6/6/6 4/4/4 5/5/5
f 6/6/6 5/5/5 7/7/7
f 6/6/6 7/7/7 8/8/8
f 8/8/8 9/9/9 6/6/6
f 3/2/2 1/1/1 10/10/10
f 10/10/10 11/11/11 3/2/2
f 10/10/10 12/12/12 11/11/11
f 10/10/10 13/13/13 12/12/12
f 12/12/12 13/13/13 14/14/14
f 14/14/14 15/15/15 12/12/12
f 1/1/1 4/4/4 16/16/16
f 16/16/16 17/17/17 1/1/1
f 18/18/18 17/17/17 16/16/16
f 16/16/16 19/19/18 18/18/18
f 19/19/18 16/16/16 20/20/19
f 20/20/19 21/21/18 19/19/18
f 17/17/17 18/18/18 22/22/18
f 22/22/18 23/23/20 17/17/17
f 13/13/13 10/10/10 23/23/20
f 17/17/17 23/23/20 10/10/10
f 23/23/20 22/22/18 24/24/21
f 24/24/21 25/25/22 23/23/20
f 14/14/14 13/13/13 25/25/22
f 23/23/20 25/25/22 13/13/13
f 20/20/19 16/16/16 4/4/4
f 4/4/4 6/6/6 20/20/19
f 26/26/22 20/20/19 6/6/6
f 6/6/6 9/9/9 26/26/22
f 25/25/22 27/27/23 14/14/14
f 28/28/24 21/21/18 20/20/19
f 20/20/19 26/26/22 28/28/24
f 25/25/22 24/24/21 29/29/21
f 29/29/21 27/27/23 25/25/22
f 10/10/10 1/1/1 17/17/17
f 30/30/25 32/31/26 31/32/27
f 31/32/27 33/33/28 30/30/25
f 33/33/28 31/32/27 34/34/29
f 34/34/29 35/35/30 33/33/28
f 35/35/30 34/34/29 36/36/31
f 36/36/31 37/37/32 35/35/30
f 37/37/32 36/36/31 38/38/33
f 38/38/33 39/39/34 37/37/32
f 39/39/34 38/38/33 40/40/35
f 40/40/35 41/41/36 39/39/34
f 41/41/36 40/40/35 42/42/37
f 42/42/37 43/43/38 41/41/36
f 30/30/25 33/33/28 44/44/39
f 44/44/39 45/45/40 30/30/25
f 33/33/28 35/35/30 46/46/41
f 46/46/41 44/44/39 33/33/28
f 35/35/30 37/37/32 47/47/42
f 47/47/42 46/46/41 35/35/30
f 37/37/32 39/39/34 48/48/43
f 48/48/43 47/47/42 37/37/32
f 39/39/34 41/41/36 49/49/44
f 49/49/44 48/48/43 39/39/34
f 41/41/36 43/43/38 50/50/45
f 50/50/45 49/49/44 41/41/36
f 51/51/46 38/38/33 36/36/31
f 36/36/31 52/52/47 51/51/46
f 51/51/46 52/52/47 53/53/48
f 54/54/49 53/53/48 52/52/47
f 52/52/47 55/55/50 54/54/49
f 56/56/51 54/54/49 55/55/50
f 55/55/50 57/57/52 56/56/51
f 58/58/53 56/56/51 57/57/52
f 57/57/52 59/59/54 58/58/53
f 53/53/48 60/60/55 51/51/46
f 61/61/56 51/51/46 60/60/55
f 60/60/55 62/62/57 61/61/56
f 63/63/58 61/61/56 62/62/57
f 62/62/57 64/64/59 63/63/58
f 32/31/26 59/59/54 57/57/52
f 57/57/52 31/32/27 32/31/26
f 31/32/27 57/57/52 55/55/50
f 55/55/50 34/34/29 31/32/27
f 34/34/29 55/55/50 52/52/47
f 52/52/47 36/36/31 34/34/29
f 40/40/35 61/61/56 63/63/58
f 61/61/56 40/40/35 38/38/33
f 38/38/33 51/51/46 61/61/56
f 63/63/58 42/42/37 40/40/35
f 62/62/57 60/60/55 65/65/60
f 64/64/59 62/62/57 65/65/60
f 60/60/55 53/53/48 65/65/60
f 66/66/60 65/65/60 53/53/48
f 53/53/48 54/54/49 66/66/60
f 54/54/49 56/56/51 66/66/60
f 67/67/60 66/66/60 56/56/51
f 56/56/51 58/58/53 67/67/60
f 65/65/60 68/68/60 64/64/59
f 3/2/2 70/69/61 69/70/62
f 69/70/62 2/3/3 3/2/2
f 2/3/3 69/70/62 71/71/63
f 71/71/63 5/5/5 2/3/3
f 5/5/5 71/71/63 72/72/64
f 72/72/64 7/7/7 5/5/5
f 7/7/7 72/72/64 73/73/65
f 73/73/65 8/8/8 7/7/7
f 70/69/61 3/2/2 11/11/11
f 11/11/11 74/74/66 70/69/61
f 74/74/66 11/11/11 12/12/12
f 12/12/12 75/75/67 74/74/66
f 75/75/67 12/12/12 15/15/15
f 15/15/15 76/76/68 75/75/67
f 69/70/62 70/69/61 77/77/69
f 77/77/69 78/78/70 69/70/62
f 71/71/63 69/70/62 78/78/70
f 78/78/70 79/79/71 71/71/63
f 71/71/63 79/79/71 80/80/72
f 72/72/64 71/71/63 80/80/72
f 80/80/72 81/81/73 72/72/64
f 73/73/65 72/72/64 81/81/73
f 81/81/73 82/82/74 73/73/65
f 75/75/67 76/76/68 83/83/75
f 83/83/75 84/84/76 75/75/67
f 75/75/67 84/84/76 85/85/77
f 74/74/66 75/75/67 85/85/77
f 85/85/77 86/86/78 74/74/66
f 70/69/61 74/74/66 86/86/78
f 86/86/78 87/87/79 70/69/61
f 70/69/61 87/87/79 77/77/69
f 9/9/80 8/8/80 88/88/80
f 26/26/80 9/9/80 88/88/80
f 8/8/80 73/73/80 88/88/80
f 73/73/80 82/82/80 88/88/80
